HIERARCHY
ROOT Hips
{
	OFFSET 0.00000 0.00000 0.00000
	CHANNELS 6 Xposition Yposition Zposition Zrotation Yrotation Xrotation 
	JOINT LHipJoint
	{
		OFFSET 0 0 0
		CHANNELS 3 Zrotation Yrotation Xrotation
		JOINT LeftUpLeg
		{
			OFFSET 1.64577 -1.42384 0.94276
			CHANNELS 3 Zrotation Yrotation Xrotation
			JOINT LeftLeg
			{
				OFFSET 2.11538 -5.81197 0.00000
				CHANNELS 3 Zrotation Yrotation Xrotation
				JOINT LeftFoot
				{
					OFFSET 2.36541 -6.49893 0.00000
					CHANNELS 3 Zrotation Yrotation Xrotation
					JOINT LeftToeBase
					{
						OFFSET 0.17759 -0.48793 1.73865
						CHANNELS 3 Zrotation Yrotation Xrotation
						End Site
						{
							OFFSET 0.00000 -0.00000 0.91205
						}
					}
				}
			}
		}
	}
	JOINT RHipJoint
	{
		OFFSET 0 0 0
		CHANNELS 3 Zrotation Yrotation Xrotation
		JOINT RightUpLeg
		{
			OFFSET -1.43750 -1.42384 0.94276
			CHANNELS 3 Zrotation Yrotation Xrotation
			JOINT RightLeg
			{
				OFFSET -2.10480 -5.78291 0.00000
				CHANNELS 3 Zrotation Yrotation Xrotation
				JOINT RightFoot
				{
					OFFSET -2.34880 -6.45329 0.00000
					CHANNELS 3 Zrotation Yrotation Xrotation
					JOINT RightToeBase
					{
						OFFSET -0.22842 -0.62757 1.80469
						CHANNELS 3 Zrotation Yrotation Xrotation
						End Site
						{
							OFFSET -0.00000 -0.00000 0.95886
						}
					}
				}
			}
		}
	}
	JOINT LowerBack
	{
		OFFSET 0 0 0
		CHANNELS 3 Zrotation Yrotation Xrotation
		JOINT Spine
		{
			OFFSET 0.06217 1.93758 -0.49272
			CHANNELS 3 Zrotation Yrotation Xrotation
			JOINT Spine1
			{
				OFFSET -0.03114 2.03621 -0.05830
				CHANNELS 3 Zrotation Yrotation Xrotation
				JOINT Neck
				{
					OFFSET 0 0 0
					CHANNELS 3 Zrotation Yrotation Xrotation
					JOINT Neck1
					{
						OFFSET 0.04421 1.41010 0.26562
						CHANNELS 3 Zrotation Yrotation Xrotation
						JOINT Head
						{
							OFFSET -0.13407 1.43847 0.06181
							CHANNELS 3 Zrotation Yrotation Xrotation
							End Site
							{
								OFFSET -0.04980 1.45844 -0.00689
							}
						}
					}
				}
				JOINT LeftShoulder
				{
					OFFSET 0 0 0
					CHANNELS 3 Zrotation Yrotation Xrotation
					JOINT LeftArm
					{
						OFFSET 2.18382 1.47753 -0.35694
						CHANNELS 3 Zrotation Yrotation Xrotation
						JOINT LeftForeArm
						{
							OFFSET 5.05460 -0.00000 0.00000
							CHANNELS 3 Zrotation Yrotation Xrotation
							JOINT LeftHand
							{
								OFFSET 3.39013 -0.00000 0.00000
								CHANNELS 3 Zrotation Yrotation Xrotation
								JOINT LeftFingerBase
								{
									OFFSET 0 0 0
									CHANNELS 3 Zrotation Yrotation Xrotation
									JOINT LeftHandIndex1
									{
										OFFSET 0.57242 -0.00000 -0.00000
										CHANNELS 3 Zrotation Yrotation Xrotation
										End Site
										{
											OFFSET 0.46150 -0.00000 -0.00000
										}
									}
								}
								JOINT LThumb
								{
									OFFSET 0 0 0
									CHANNELS 3 Zrotation Yrotation Xrotation
									End Site
									{
										OFFSET 0.46855 -0.00000 0.46855
									}
								}
							}
						}
					}
				}
				JOINT RightShoulder
				{
					OFFSET 0 0 0
					CHANNELS 3 Zrotation Yrotation Xrotation
					JOINT RightArm
					{
						OFFSET -2.06033 1.72839 -0.47437
						CHANNELS 3 Zrotation Yrotation Xrotation
						JOINT RightForeArm
						{
							OFFSET -5.07010 -0.00000 0.00000
							CHANNELS 3 Zrotation Yrotation Xrotation
							JOINT RightHand
							{
								OFFSET -3.14957 -0.00000 -0.00000
								CHANNELS 3 Zrotation Yrotation Xrotation
								JOINT RightFingerBase
								{
									OFFSET 0 0 0
									CHANNELS 3 Zrotation Yrotation Xrotation
									JOINT RightHandIndex1
									{
										OFFSET -0.71819 -0.00000 -0.00000
										CHANNELS 3 Zrotation Yrotation Xrotation
										End Site
										{
											OFFSET -0.57902 -0.00000 -0.00000
										}
									}
								}
								JOINT RThumb
								{
									OFFSET 0 0 0
									CHANNELS 3 Zrotation Yrotation Xrotation
									End Site
									{
										OFFSET -0.58786 -0.00000 0.58786
									}
								}
							}
						}
					}
				}
			}
		}
	}
}
MOTION
Frames: 16
Frame Time: .0083333
3.1225 15.3672 4.2833 0 0 0 0 0 0 -21 0 0 0 0 0 0 0 0 0 0 0 0 0 0 21 0 0 0 0 0 0 0 0 0 0 0 0 0 0 0 0 0 0 0 0 0 0 -16 0 0 21 0 0 11 0 0 0 -8 0 0 0 0 0 0 0 0 0 0 0 0 0 0 0 0 0 0 0 0 8 0 0 0 0 0 0 0 0 0 0 0 0 0 0 0 0 0
3.1225 15.3672 4.2833 179.1560 7.5977 175.3980 0.0000 0.0000 0.0000 -27.9288 -11.2653 5.1696 1.0444 6.4992 18.2399 -0.9698 29.5100 -36.4690 0.0104 -0.6597 -1.8129 0.0000 0.0000 0.0000 22.2518 5.9442 -4.6628 -4.6902 -13.0262 39.4667 -1.9785 -7.2523 -29.9831 -1.1871 6.9143 -19.4618 -0.9590 4.0635 4.6882 -3.4695 5.8707 4.1769 -3.1899 3.1521 1.9630 16.0445 4.7894 3.0540 -9.6162 6.7503 -4.1360 -5.5525 3.3299 -0.8408 -0.0000 0.0000 0.0000 -80.2787 -3.3969 30.6550 13.8394 -22.5047 -2.7664 -0.0000 -0.0000 4.5921 17.7036 9.4637 3.0044 -7.1250 0.0000 -0.0000 -8.0886 39.7787 1.0489 -0.0000 0.0000 0.0000 88.7500 -8.9858 27.7871 -20.7067 31.4843 -5.8960 0.0000 -0.0000 -0.4577 -9.3093 9.2905 -1.5159 7.1250 -0.0000 -0.0000 12.5924 -20.6631 7.5197
3.1665 15.3612 4.2963 179.3250 6.4728 174.6840 0.0000 0.0000 0.0000 -27.6542 -11.0864 5.9443 1.0384 6.4809 18.1864 -0.8464 28.6416 -35.7523 0.0056 -0.4837 -1.3292 0.0000 0.0000 0.0000 22.1672 4.4331 -5.6442 -5.0746 -13.4674 41.1442 -1.7324 -7.2616 -28.3806 -1.1324 6.7585 -19.0018 -1.5050 3.7207 6.0692 -3.3374 5.3777 4.2394 -2.8498 2.9050 1.1751 15.9192 4.7873 3.0498 -9.2702 6.7537 -4.0269 -5.4227 3.3280 -0.8255 -0.0000 -0.0000 0.0000 -80.3543 -3.3635 30.3103 14.1530 -22.9530 -2.8875 -0.0000 -0.0000 3.9442 17.8803 9.4710 3.0387 -7.1250 0.0000 -0.0000 -7.9372 39.8006 1.0246 -0.0000 -0.0000 0.0000 88.5466 -9.2704 29.7196 -21.3178 32.1975 -6.2184 0.0000 -0.0000 -3.9589 -7.3436 11.6772 -1.4942 7.1250 -0.0000 -0.0000 13.8131 -18.3927 9.0146
3.2104 15.3401 4.3108 179.5000 5.2977 174.0110 0.0000 0.0000 0.0000 -27.2948 -10.3353 6.5166 1.0040 6.3759 17.8790 -0.7616 27.8014 -34.8976 0.0032 -0.3628 -0.9970 0.0000 0.0000 0.0000 22.0608 2.9296 -6.6779 -5.4682 -13.8924 42.8081 -1.4434 -7.6931 -26.6370 -1.3403 7.3302 -20.6975 -2.0158 3.3103 7.3961 -3.2052 4.7849 4.3034 -2.4989 2.6116 0.4341 15.8840 4.9333 3.0868 -9.2911 6.9573 -3.9403 -5.4198 3.4347 -0.7806 0.0000 0.0000 0.0000 -80.4361 -3.2442 30.0087 14.5635 -23.5345 -3.0495 -0.0000 -0.0000 2.8612 18.2988 9.7728 3.2128 -7.1250 0.0000 -0.0000 -7.6253 40.1484 0.9181 0.0000 0.0000 0.0000 88.4226 -9.3675 31.2891 -21.7613 32.7062 -6.4564 0.0000 -0.0000 -7.0101 -7.6278 11.5213 -1.5322 7.1250 -0.0000 -0.0000 13.6270 -18.5334 8.8421
3.2474 15.3155 4.3115 180.1040 4.3344 174.0600 0.0000 0.0000 0.0000 -26.3805 -9.4163 6.0449 0.9969 6.3540 17.8150 -0.7660 27.5561 -34.4816 0.0148 -0.7852 -2.1579 0.0000 0.0000 0.0000 22.3159 1.6886 -8.2664 -5.7972 -14.2289 44.1621 -1.1809 -8.1317 -24.9627 -1.6393 8.0705 -22.9283 -1.8853 2.9705 7.8265 -3.0020 4.3039 4.2370 -2.3615 2.3643 0.1064 15.4338 5.0092 2.6492 -8.6071 7.0029 -3.3881 -5.1113 3.4550 -0.5838 -0.0000 0.0000 0.0000 -80.5364 -3.0832 30.0091 15.0475 -24.2123 -3.2454 -0.0000 -0.0000 1.5811 18.8178 10.0605 3.4067 -7.1250 0.0000 -0.0000 -7.2220 40.4921 0.8075 -0.0000 0.0000 0.0000 88.3326 -9.4115 32.5374 -22.1344 33.1286 -6.6592 0.0000 -0.0000 -9.9300 -9.4173 10.4002 -1.7150 7.1250 -0.0000 -0.0000 12.4495 -19.5623 7.7459
3.2798 15.3059 4.3021 180.3690 3.5072 173.8990 0.0000 0.0000 0.0000 -25.9408 -8.9114 5.9573 0.9854 6.3183 17.7108 -1.5429 29.0140 -32.1550 0.2316 -3.0973 -8.5496 0.0000 0.0000 0.0000 22.1730 0.3134 -9.4930 -6.0448 -14.4716 45.1613 -1.0208 -8.9487 -24.3002 -2.1317 9.1352 -26.2190 -1.9401 2.7246 8.3869 -2.8750 3.9513 4.2081 -2.2103 2.1868 -0.2542 13.4916 5.3497 1.5577 -5.9640 7.3056 -2.0118 -4.3941 3.5996 -0.1497 0.0000 -0.0000 0.0000 -80.6539 -2.8189 30.3544 15.5659 -24.9285 -3.4609 -0.0000 -0.0000 0.3211 19.1956 10.3066 3.5643 -7.1250 0.0000 -0.0000 -6.9329 40.7821 0.7251 0.0000 -0.0000 0.0000 88.2590 -9.6009 33.9014 -22.6285 33.6801 -6.9312 0.0000 -0.0000 -13.6453 -11.3382 9.8347 -1.9615 7.1250 -0.0000 -0.0000 11.1278 -20.0421 6.7677
3.3239 15.3116 4.3006 180.6330 2.4140 174.1660 0.0000 0.0000 0.0000 -25.3090 -8.7785 5.1567 1.0056 6.3809 17.8937 -3.3603 32.4800 -25.8532 1.7804 -8.3928 -23.9137 0.0000 0.0000 0.0000 22.1959 -1.0671 -10.9682 -6.1503 -14.5724 45.5821 -0.7217 -11.6421 -24.1735 -3.3504 11.2418 -33.0998 -2.4067 2.3980 8.7007 -2.5688 3.4307 4.0159 -1.6149 1.9045 -0.6834 11.4358 5.4520 2.0428 -4.3279 7.4665 -2.5396 -3.4534 3.6597 -0.5404 0.0000 0.0000 0.0000 -81.0215 -2.5017 30.5305 16.0379 -25.5720 -3.6623 -0.0000 0.0000 -0.6184 19.3554 10.4184 3.6348 -7.1250 0.0000 -0.0000 -6.8115 40.9133 0.6901 0.0000 0.0000 0.0000 87.9013 -9.9788 36.1248 -23.4311 34.5568 -7.3814 0.0000 -0.0000 -19.4189 -14.1076 9.5371 -2.3845 7.1250 -0.0000 -0.0000 9.1753 -20.2110 5.5107
3.3567 15.3382 4.2664 180.7780 2.1371 174.3000 0.0000 0.0000 0.0000 -25.0277 -9.1339 5.0853 1.0303 6.4564 18.1146 -3.4986 32.7713 -25.3614 1.9758 -8.8154 -25.2196 0.0000 0.0000 0.0000 21.9586 -1.2826 -11.6055 -6.1477 -14.5699 45.5715 -0.6928 -12.5299 -24.8072 -3.2970 11.1610 -32.8247 -2.4368 2.4192 8.6047 -2.5143 3.4536 3.9915 -1.5396 1.9121 -0.6610 11.5053 5.4343 1.7719 -4.3503 7.4115 -2.3526 -3.4598 3.6353 -0.4329 -0.0000 0.0000 0.0000 -81.0265 -2.4485 31.2310 16.4138 -26.0785 -3.8261 -0.0000 0.0000 -1.3766 19.2884 10.3856 3.6100 -7.1250 0.0000 -0.0000 -6.8648 40.8731 0.7024 -0.0000 0.0000 0.0000 87.8901 -10.0765 36.2821 -23.8462 35.0012 -7.6181 0.0000 -0.0000 -20.0240 -13.6922 9.0499 -2.1946 7.1250 -0.0000 -0.0000 9.4878 -20.7254 5.5922
3.3863 15.3756 4.2274 180.7400 1.9694 174.3940 0.0000 0.0000 0.0000 -25.0526 -10.3738 5.7836 1.0472 6.5077 18.2648 -0.7568 26.7757 -33.2855 0.0423 -1.3268 -3.6485 0.0000 0.0000 0.0000 21.5020 -1.3046 -11.8368 -6.0262 -14.4537 45.0869 -0.5581 -13.8349 -25.0526 -3.3529 11.2455 -33.1125 -2.5571 2.4322 8.4072 -2.5109 3.4704 4.0081 -1.4592 1.9181 -0.5418 11.4899 5.3635 1.7348 -4.4652 7.3123 -2.4603 -3.4991 3.5847 -0.4658 -0.0000 -0.0000 0.0000 -81.0664 -2.3875 31.7931 16.7227 -26.4908 -3.9629 -0.0000 0.0000 -1.9060 19.4971 10.1117 3.5570 -7.1250 0.0000 -0.0000 -6.6375 40.6048 0.7230 -0.0000 -0.0000 0.0000 87.7450 -10.1767 36.7215 -24.2556 35.4334 -7.8542 0.0000 -0.0000 -20.6377 -15.4992 8.4514 -2.3339 7.1250 -0.0000 -0.0000 8.2106 -21.2508 4.7242
3.4154 15.4014 4.1891 180.5500 1.9071 174.5340 0.0000 0.0000 0.0000 -25.2353 -11.1176 6.2478 1.0481 6.5103 18.2724 -3.3313 32.1308 -24.9280 1.9290 -8.7166 -24.9128 0.0000 0.0000 0.0000 20.8149 -0.9166 -11.9153 -5.8422 -14.2737 44.3452 -0.5143 -14.7424 -25.6944 -3.2412 11.0756 -32.5352 -2.7461 2.4802 8.1428 -2.5394 3.5296 3.9996 -1.3739 1.9437 -0.4134 11.4785 5.3293 1.7277 -4.5505 7.2656 -2.5183 -3.5282 3.5616 -0.4844 -0.0000 0.0000 0.0000 -81.1884 -2.2705 32.1992 16.9711 -26.8196 -4.0743 -0.0000 0.0000 -2.1342 19.9965 9.8475 3.5613 -7.1250 0.0000 -0.0000 -6.1603 40.3706 0.7062 -0.0000 0.0000 0.0000 87.6334 -10.2595 36.9134 -24.5427 35.7329 -8.0213 0.0000 -0.0000 -20.5500 -18.6156 7.6492 -2.5672 7.1250 -0.0000 -0.0000 5.9697 -21.9294 3.3260
3.4433 15.4032 4.1555 180.7630 1.8757 173.9240 0.0000 0.0000 0.0000 -25.0924 -10.9433 7.0557 1.0553 6.5318 18.3354 -2.4125 30.3390 -28.5524 0.9710 -6.2734 -17.5797 0.0000 0.0000 0.0000 20.5117 -0.5882 -11.0374 -5.5910 -14.0200 43.3174 -0.5097 -15.3244 -26.3149 -3.0993 10.8541 -31.7895 -2.4519 2.4991 8.8087 -2.4140 3.5724 4.1147 -1.4459 1.9771 -0.6513 11.4594 5.3879 1.6242 -4.5445 7.3322 -2.3556 -3.5138 3.5994 -0.4084 0.0000 0.0000 0.0000 -81.4549 -2.0447 32.2632 17.1697 -27.0809 -4.1643 -0.0000 0.0000 -1.8828 19.9984 9.9640 3.6033 -7.1250 0.0000 -0.0000 -6.1764 40.4933 0.6893 0.0000 0.0000 0.0000 87.4741 -10.4064 37.0291 -24.7369 35.9339 -8.1350 0.0000 -0.0000 -20.2923 -22.8460 7.1457 -3.0000 7.1250 -0.0000 -0.0000 2.8813 -22.2362 1.5786
3.4756 15.4012 4.1282 181.1210 1.7908 173.2540 0.0000 0.0000 0.0000 -24.7669 -10.7971 8.1228 1.0270 6.4464 18.0852 1.4863 21.5030 -38.8284 0.6513 5.1622 14.3718 0.0000 0.0000 0.0000 20.3612 -0.1893 -9.9867 -5.3065 -13.7209 42.1306 -0.5150 -15.7205 -26.8079 -3.0064 10.7054 -31.2927 -1.7534 2.5220 9.5456 -2.3685 3.6761 4.3144 -1.8337 2.0531 -0.8096 11.3389 5.3267 1.5718 -4.4483 7.2414 -2.4795 -3.4602 3.5489 -0.4554 -0.0000 -0.0000 0.0000 -81.5503 -2.0591 32.4623 17.2804 -27.2260 -4.2148 -0.0000 0.0000 -1.6024 19.7268 9.9161 3.5335 -7.1250 0.0000 -0.0000 -6.4061 40.4195 0.7269 -0.0000 -0.0000 0.0000 88.1467 -10.2403 36.3906 -24.5583 35.7491 -8.0304 0.0000 -0.0000 -19.9008 -23.2527 8.0309 -3.4354 7.1250 -0.0000 -0.0000 2.6032 -21.2531 1.4840
3.5126 15.3877 4.0995 181.1290 1.7077 172.9370 0.0000 0.0000 0.0000 -24.7181 -10.6706 8.7653 0.9928 6.3415 17.7784 1.2318 22.2522 -38.3490 0.4489 4.2987 11.9186 0.0000 0.0000 0.0000 19.8572 0.2509 -9.2900 -4.9919 -13.3747 40.7878 -0.2512 -16.9926 -26.2435 -3.5705 11.5659 -34.2129 -1.6425 2.5156 9.9575 -2.2883 3.6739 4.3365 -1.8362 2.0563 -1.0107 11.2533 5.3584 1.6614 -4.4975 7.2935 -2.5443 -3.4653 3.5764 -0.4890 -0.0000 -0.0000 0.0000 -81.7839 -1.8246 32.6409 17.3495 -27.3162 -4.2465 -0.0000 0.0000 -1.7000 19.8672 9.6428 3.4637 -7.1250 0.0000 -0.0000 -6.2420 40.1442 0.7506 -0.0000 -0.0000 0.0000 88.1571 -10.2273 36.4093 -24.5131 35.7022 -8.0040 0.0000 -0.0000 -19.3589 -23.0358 8.0351 -3.4014 7.1250 -0.0000 -0.0000 2.7606 -21.2629 1.5734
3.5526 15.3987 4.0660 181.0750 1.6925 173.0190 0.0000 0.0000 0.0000 -24.6531 -10.6976 8.9984 0.9631 6.2487 17.5077 0.9916 22.9797 -37.9371 0.2915 3.4722 9.5964 0.0000 0.0000 0.0000 19.1632 1.5381 -8.6535 -4.6619 -12.9926 39.3408 -0.5484 -15.6985 -27.0404 -2.8831 10.5034 -30.6229 -1.5803 2.5073 9.8655 -2.2383 3.6622 4.3161 -1.8132 2.0467 -0.9818 11.4277 5.4786 1.4584 -4.6855 7.4323 -2.4115 -3.5498 3.6493 -0.3838 -0.0000 0.0000 0.0000 -81.9611 -1.6389 32.8635 17.3850 -27.3625 -4.2628 -0.0000 0.0000 -2.0794 20.0835 9.6673 3.5134 -7.1250 0.0000 -0.0000 -6.0573 40.1882 0.7216 -0.0000 0.0000 0.0000 87.9283 -10.1373 36.7612 -24.5118 35.7008 -8.0032 0.0000 -0.0000 -19.1254 -22.9811 7.9219 -3.3450 7.1250 -0.0000 -0.0000 2.7977 -21.3890 1.5865
3.6026 15.4066 4.0376 180.9930 1.5734 173.0900 0.0000 0.0000 0.0000 -24.5377 -10.7188 9.2878 0.9238 6.1234 17.1430 1.3021 22.0808 -38.5166 0.4730 4.4109 12.2355 0.0000 0.0000 0.0000 18.5157 2.8583 -7.9497 -4.3283 -12.5850 37.8341 -0.5678 -15.3859 -26.8394 -2.9374 10.5930 -30.9193 -1.7169 2.4510 9.7867 -2.1220 3.5725 4.3276 -1.6027 1.9962 -0.9441 11.6773 5.6125 1.3012 -5.0675 7.5956 -2.3620 -3.7191 3.7350 -0.2993 0.0000 -0.0000 0.0000 -82.2676 -1.4837 32.8018 17.3531 -27.3209 -4.2481 -0.0000 0.0000 -2.2968 20.0723 9.8357 3.5717 -7.1250 0.0000 -0.0000 -6.0923 40.3647 0.6992 0.0000 -0.0000 0.0000 87.4613 -10.0201 37.3374 -24.6179 35.8109 -8.0653 0.0000 -0.0000 -19.2172 -22.7495 7.8744 -3.2879 7.1250 -0.0000 -0.0000 2.9648 -21.4552 1.6771
3.6547 15.4101 4.0109 180.9230 1.4175 173.1440 0.0000 0.0000 0.0000 -24.3688 -10.5713 9.5948 0.8681 5.9408 16.6128 1.2701 21.9988 -38.2728 0.4817 4.4506 12.3478 0.0000 0.0000 0.0000 17.8913 4.1909 -7.1375 -4.0040 -12.1657 36.3206 -0.4880 -15.4142 -26.2450 -3.3130 11.1853 -32.9075 -1.6857 2.4119 9.8996 -2.0582 3.5001 4.2083 -1.5574 1.9528 -1.1333 11.6488 5.6606 1.4102 -5.1494 7.6738 -2.3507 -3.7447 3.7781 -0.3055 0.0000 -0.0000 0.0000 -82.5159 -1.1046 32.7745 17.2724 -27.2155 -4.2112 -0.0000 0.0000 -2.1867 19.8013 9.8125 3.5113 -7.1250 0.0000 -0.0000 -6.3251 40.3169 0.7337 0.0000 -0.0000 0.0000 87.0683 -10.1328 37.8429 -24.7851 35.9835 -8.1633 0.0000 -0.0000 -19.5915 -22.4252 7.6843 -3.1585 7.1250 -0.0000 -0.0000 3.1970 -21.6803 1.7925
